<svg width="290" height="46" viewBox="0 0 290 46" fill="none" xmlns="http://www.w3.org/2000/svg">
<g clip-path="url(#clip0_314_111)">
<g clip-path="url(#clip1_314_111)">
<g clip-path="url(#clip2_314_111)">
<path d="M79.9084 2.80174C79.9084 1.20679 78.9809 -0.0861816 77.8368 -0.0861816C76.6927 -0.0861816 75.7652 1.20679 75.7652 2.80174V43.1983C75.7652 44.7932 76.6927 46.0862 77.8368 46.0862C78.9809 46.0862 79.9084 44.7932 79.9084 43.1983V2.80174Z" fill="#185E2D"/>
<g clip-path="url(#clip3_314_111)">
<g clip-path="url(#clip4_314_111)">
<g clip-path="url(#clip5_314_111)">
<g clip-path="url(#clip6_314_111)">
<path d="M130.117 13.9506C130.117 16.5803 129.189 18.8449 127.333 20.7445C125.477 22.6503 122.77 24.0208 119.212 24.8562C121.13 25.3821 122.584 26.2391 123.574 27.4271C124.564 28.6213 125.059 29.9918 125.059 31.5387C125.059 33.9828 124.295 36.1021 122.767 37.8965C121.232 39.6908 118.995 41.0738 116.056 42.0452C113.117 43.0229 109.575 43.5117 105.429 43.5117C103.882 43.5117 102.645 43.4653 101.716 43.3724C101.686 44.2387 101.314 44.8884 100.603 45.3215C99.8911 45.7547 98.9785 45.9712 97.8647 45.9712C96.7509 45.9712 95.9868 45.7237 95.5722 45.2287C95.1514 44.7337 94.972 44.0067 95.0339 43.0476C95.3123 38.7163 95.8537 34.1746 96.6581 29.4226C97.4625 24.6767 98.4835 20.0917 99.721 15.6676C99.9375 14.8942 100.371 14.3528 101.02 14.0434C101.67 13.734 102.521 13.5793 103.573 13.5793C105.46 13.5793 106.404 14.1053 106.404 15.1572C106.404 15.5903 106.311 16.0853 106.125 16.6422C105.321 19.0553 104.516 22.3254 103.712 26.4526C102.908 30.5858 102.335 34.5242 101.995 38.2677C103.48 38.3915 104.686 38.4533 105.615 38.4533C109.946 38.4533 113.126 37.8253 115.156 36.5692C117.179 35.3193 118.191 33.7198 118.191 31.7708C118.191 30.4095 117.612 29.2648 116.455 28.3367C115.292 27.4085 113.349 26.8981 110.627 26.8052C110.008 26.7743 109.575 26.6196 109.327 26.3412C109.08 26.0627 108.956 25.6141 108.956 24.9954C108.956 24.0982 109.142 23.3711 109.513 22.8143C109.884 22.2574 110.565 21.9635 111.555 21.9325C113.751 21.8707 115.741 21.5458 117.523 20.958C119.298 20.3702 120.697 19.541 121.718 18.4706C122.739 17.4063 123.249 16.1626 123.249 14.7395C123.249 12.9451 122.367 11.5282 120.604 10.4886C118.841 9.45532 116.133 8.93865 112.483 8.93865C109.172 8.93865 105.97 9.3656 102.877 10.2195C99.7828 11.0672 97.1531 12.1407 94.9875 13.4401C93.9975 14.0279 93.1621 14.3218 92.4815 14.3218C91.9246 14.3218 91.5008 14.1269 91.21 13.7371C90.913 13.3535 90.7645 12.8678 90.7645 12.2799C90.7645 11.5065 90.9284 10.8413 91.2564 10.2845C91.5781 9.72757 92.3578 9.09335 93.5953 8.38178C96.1941 6.89676 99.2414 5.73659 102.737 4.90127C106.233 4.06595 109.807 3.64829 113.457 3.64829C119.057 3.64829 123.234 4.59189 125.987 6.4791C128.741 8.36631 130.117 10.8568 130.117 13.9506ZM148.03 33.3022C148.433 33.3022 148.748 33.4878 148.977 33.8591C149.212 34.2303 149.33 34.7408 149.33 35.3905C149.33 36.628 149.036 37.5871 148.448 38.2677C147.118 39.9074 145.67 41.2532 144.104 42.3051C142.545 43.357 140.775 43.8829 138.795 43.8829C136.073 43.8829 134.053 42.6454 132.735 40.1704C131.423 37.6954 130.767 34.4933 130.767 30.5642C130.767 26.7898 131.253 22.4894 132.224 17.6631C133.202 12.8368 134.64 8.69115 136.54 5.22612C138.446 1.76108 140.714 0.0285645 143.343 0.0285645C144.828 0.0285645 145.995 0.715385 146.842 2.08902C147.696 3.46885 148.123 5.44268 148.123 8.01052C148.123 11.6921 147.102 15.9615 145.06 20.8188C143.018 25.676 140.25 30.4868 136.754 35.2513C136.97 36.5197 137.326 37.4231 137.821 37.9614C138.316 38.5059 138.966 38.7782 139.77 38.7782C141.038 38.7782 142.152 38.4131 143.111 37.683C144.07 36.959 145.292 35.7153 146.777 33.9519C147.149 33.5188 147.566 33.3022 148.03 33.3022ZM142.322 4.62283C141.611 4.62283 140.806 5.90675 139.909 8.47459C139.012 11.0424 138.223 14.229 137.542 18.0344C136.862 21.8397 136.491 25.4904 136.429 28.9864C138.625 25.3666 140.373 21.7376 141.673 18.0993C142.972 14.4672 143.622 11.1507 143.622 8.14974C143.622 5.79847 143.189 4.62283 142.322 4.62283ZM169.238 29.404C169.64 29.404 169.95 29.6051 170.166 30.0073C170.383 30.4095 170.491 30.92 170.491 31.5387C170.491 33.0238 170.043 33.9055 169.145 34.1839C167.289 34.8336 165.247 35.2049 163.02 35.2977C162.432 37.8965 161.272 39.9786 159.539 41.544C157.807 43.1033 155.842 43.8829 153.646 43.8829C151.789 43.8829 150.202 43.4343 148.884 42.5371C147.573 41.6399 146.576 40.4488 145.896 38.9638C145.215 37.4788 144.875 35.87 144.875 34.1375C144.875 31.7862 145.323 29.6887 146.221 27.8448C147.118 26.007 148.355 24.5684 149.933 23.5289C151.511 22.4956 153.259 21.9789 155.177 21.9789C157.528 21.9789 159.422 22.7895 160.857 24.4107C162.299 26.038 163.144 28.0428 163.391 30.425C164.845 30.3322 166.578 30.0228 168.589 29.4968C168.836 29.435 169.053 29.404 169.238 29.404ZM154.017 38.9638C155.007 38.9638 155.864 38.5616 156.588 37.7572C157.318 36.9529 157.807 35.7927 158.054 34.2767C157.095 33.627 156.359 32.7762 155.845 31.7244C155.338 30.6725 155.084 29.5587 155.084 28.3831C155.084 27.8881 155.131 27.3931 155.223 26.8981H154.991C153.754 26.8981 152.724 27.4921 151.901 28.6801C151.084 29.8743 150.676 31.5542 150.676 33.7198C150.676 35.4214 151.007 36.7208 151.669 37.618C152.337 38.5152 153.12 38.9638 154.017 38.9638ZM190.158 29.404C190.561 29.404 190.87 29.6051 191.087 30.0073C191.303 30.4095 191.411 30.92 191.411 31.5387C191.411 33.0238 190.963 33.9055 190.066 34.1839C188.209 34.8336 186.167 35.2049 183.94 35.2977C183.352 37.8965 182.192 39.9786 180.459 41.544C178.727 43.1033 176.762 43.8829 174.566 43.8829C172.709 43.8829 171.125 43.4343 169.814 42.5371C168.496 41.6399 167.496 40.4488 166.816 38.9638C166.135 37.4788 165.795 35.87 165.795 34.1375C165.795 31.7862 166.243 29.6887 167.141 27.8448C168.038 26.007 169.275 24.5684 170.853 23.5289C172.431 22.4956 174.179 21.9789 176.097 21.9789C178.448 21.9789 180.345 22.7895 181.787 24.4107C183.222 26.038 184.064 28.0428 184.311 30.425C185.765 30.3322 187.498 30.0228 189.509 29.4968C189.756 29.435 189.973 29.404 190.158 29.404ZM174.937 38.9638C175.927 38.9638 176.787 38.5616 177.517 37.7572C178.241 36.9529 178.727 35.7927 178.974 34.2767C178.015 33.627 177.282 32.7762 176.775 31.7244C176.261 30.6725 176.004 29.5587 176.004 28.3831C176.004 27.8881 176.051 27.3931 176.144 26.8981H175.912C174.674 26.8981 173.647 27.4921 172.83 28.6801C172.007 29.8743 171.596 31.5542 171.596 33.7198C171.596 35.4214 171.93 36.7208 172.598 37.618C173.26 38.5152 174.04 38.9638 174.937 38.9638ZM190.715 43.8829C189.54 43.8829 188.714 43.2642 188.237 42.0267C187.755 40.7891 187.513 38.8091 187.513 36.0866C187.513 32.0647 188.086 28.2439 189.23 24.6241C189.509 23.7269 189.967 23.068 190.604 22.6472C191.235 22.2326 192.123 22.0254 193.268 22.0254C193.886 22.0254 194.32 22.1027 194.567 22.2574C194.815 22.4121 194.938 22.706 194.938 23.1391C194.938 23.6341 194.706 24.7479 194.242 26.4804C193.933 27.7179 193.685 28.7915 193.5 29.701C193.314 30.6168 193.159 31.7553 193.036 33.1166C193.871 30.7034 194.87 28.6615 196.034 26.9909C197.191 25.3202 198.382 24.0734 199.607 23.2505C200.826 22.4337 201.977 22.0254 203.06 22.0254C204.142 22.0254 204.91 22.2729 205.361 22.7679C205.807 23.2629 206.03 24.0208 206.03 25.0418C206.03 26.0318 205.736 27.8262 205.148 30.425C204.9 31.5387 204.73 32.3741 204.637 32.9309C206.184 29.1256 207.901 26.3566 209.788 24.6241C211.676 22.8916 213.439 22.0254 215.079 22.0254C217.09 22.0254 218.095 23.0308 218.095 25.0418C218.095 26.2484 217.755 28.4295 217.074 31.5851C216.487 34.2767 216.193 36.0557 216.193 36.9219C216.193 38.1594 216.641 38.7782 217.538 38.7782C218.157 38.7782 218.893 38.3976 219.747 37.6366C220.595 36.8817 221.73 35.6535 223.154 33.9519C223.525 33.5188 223.943 33.3022 224.407 33.3022C224.809 33.3022 225.127 33.4878 225.363 33.8591C225.592 34.2303 225.706 34.7408 225.706 35.3905C225.706 36.628 225.412 37.5871 224.824 38.2677C223.494 39.9074 222.062 41.2532 220.527 42.3051C218.999 43.357 217.26 43.8829 215.311 43.8829C213.733 43.8829 212.542 43.425 211.738 42.5093C210.933 41.5997 210.531 40.2787 210.531 38.5462C210.531 37.6799 210.748 36.133 211.181 33.9055C211.583 31.9564 211.784 30.6106 211.784 29.8681C211.784 29.3731 211.614 29.1256 211.273 29.1256C210.871 29.1256 210.299 29.6422 209.556 30.6756C208.814 31.7151 208.071 33.0856 207.329 34.7872C206.586 36.4888 205.983 38.2832 205.519 40.1704C205.179 41.6554 204.786 42.6454 204.34 43.1404C203.889 43.6354 203.168 43.8829 202.178 43.8829C201.157 43.8829 200.393 43.3941 199.885 42.4165C199.372 41.445 199.115 40.2632 199.115 38.871C199.115 37.6954 199.27 35.9938 199.579 33.7663C199.827 31.7862 199.95 30.4868 199.95 29.8681C199.95 29.3731 199.78 29.1256 199.44 29.1256C198.976 29.1256 198.388 29.6825 197.676 30.7962C196.965 31.91 196.278 33.3331 195.616 35.0656C194.948 36.7982 194.412 38.4997 194.01 40.1704C193.67 41.6245 193.277 42.6052 192.831 43.1126C192.38 43.6261 191.674 43.8829 190.715 43.8829ZM242.644 33.3022C243.047 33.3022 243.362 33.4878 243.591 33.8591C243.826 34.2303 243.944 34.7408 243.944 35.3905C243.944 36.628 243.65 37.5871 243.062 38.2677C241.917 39.6599 240.299 40.9438 238.208 42.1195C236.123 43.2951 233.889 43.8829 231.507 43.8829C228.258 43.8829 225.737 43.0012 223.943 41.2377C222.148 39.4743 221.251 37.0611 221.251 33.9983C221.251 31.8636 221.7 29.8774 222.597 28.0397C223.494 26.1958 224.738 24.7324 226.328 23.6496C227.924 22.5668 229.728 22.0254 231.739 22.0254C233.533 22.0254 234.972 22.5575 236.055 23.6217C237.138 24.6922 237.679 26.1401 237.679 27.9654C237.679 30.1001 236.912 31.9316 235.377 33.46C233.849 34.9945 231.259 36.2103 227.609 37.1075C228.382 38.5307 229.852 39.2422 232.017 39.2422C233.41 39.2422 234.994 38.7534 236.769 37.7758C238.551 36.8043 240.092 35.5297 241.391 33.9519C241.763 33.5188 242.18 33.3022 242.644 33.3022ZM230.95 26.5732C229.805 26.5732 228.837 27.2384 228.045 28.5687C227.259 29.899 226.866 31.5078 226.866 33.395V33.4878C228.691 33.0547 230.13 32.405 231.182 31.5387C232.234 30.6725 232.76 29.667 232.76 28.5223C232.76 27.9345 232.596 27.4642 232.268 27.1115C231.946 26.7527 231.507 26.5732 230.95 26.5732ZM243.471 43.8829C242.301 43.8829 241.475 43.2642 240.992 42.0267C240.516 40.7891 240.278 38.8091 240.278 36.0866C240.278 32.0647 240.85 28.2439 241.995 24.6241C242.273 23.7269 242.728 23.068 243.359 22.6472C243.996 22.2326 244.884 22.0254 246.023 22.0254C246.642 22.0254 247.078 22.1027 247.332 22.2574C247.579 22.4121 247.703 22.706 247.703 23.1391C247.703 23.6341 247.471 24.7479 247.007 26.4804C246.697 27.7179 246.447 28.8007 246.255 29.7289C246.075 30.657 245.921 31.8017 245.791 33.163C246.818 30.5023 247.966 28.3367 249.234 26.666C250.496 24.9954 251.74 23.8043 252.965 23.0927C254.19 22.3811 255.314 22.0254 256.334 22.0254C258.345 22.0254 259.351 23.0308 259.351 25.0418C259.351 25.444 259.212 26.4185 258.933 27.9654C258.686 29.2029 258.562 29.9764 258.562 30.2857C258.562 31.3686 258.949 31.91 259.722 31.91C260.588 31.91 261.702 31.2294 263.063 29.8681C263.466 29.4659 263.883 29.2648 264.316 29.2648C264.719 29.2648 265.034 29.4411 265.263 29.7938C265.498 30.1527 265.616 30.6261 265.616 31.2139C265.616 32.3586 265.306 33.2558 264.688 33.9055C263.821 34.8027 262.807 35.5668 261.643 36.198C260.486 36.8353 259.258 37.1539 257.959 37.1539C256.319 37.1539 255.072 36.7363 254.218 35.901C253.371 35.0656 252.947 33.9364 252.947 32.5133C252.947 32.0492 252.993 31.5851 253.086 31.1211C253.148 30.5023 253.179 30.0847 253.179 29.8681C253.179 29.3731 253.009 29.1256 252.668 29.1256C252.204 29.1256 251.592 29.6422 250.831 30.6756C250.076 31.7151 249.324 33.0856 248.575 34.7872C247.839 36.4888 247.239 38.2832 246.775 40.1704C246.428 41.6245 246.032 42.6052 245.587 43.1126C245.141 43.6261 244.436 43.8829 243.471 43.8829ZM274.099 44.9039C272.49 44.9039 271.262 44.5326 270.414 43.7901C269.56 43.0476 269.133 42.2123 269.133 41.2841C269.133 40.4798 269.427 39.7837 270.015 39.1958C270.603 38.608 271.469 38.3141 272.614 38.3141C273.016 38.3141 273.489 38.3512 274.034 38.4255C274.572 38.5059 274.981 38.5616 275.259 38.5926C275.228 37.7882 275.052 37.0302 274.73 36.3186C274.402 35.6071 273.991 34.9171 273.496 34.2489C273.001 33.5868 272.537 33.0083 272.103 32.5133C271.144 34.3386 270.195 35.8546 269.254 37.0611C268.307 38.2677 267.277 39.4124 266.163 40.4952C265.607 41.0521 265.019 41.3306 264.4 41.3306C263.905 41.3306 263.503 41.1511 263.193 40.7922C262.884 40.4395 262.729 40.0002 262.729 39.4743C262.729 38.8555 262.946 38.2832 263.379 37.7572L263.982 37.0147C265.684 34.911 266.968 33.1784 267.834 31.8172C268.36 30.92 268.979 29.7196 269.69 28.216C270.402 26.7186 271.098 25.1655 271.779 23.5568C272.366 22.1955 273.588 21.5149 275.445 21.5149C276.311 21.5149 276.914 21.5922 277.255 21.7469C277.595 21.9016 277.765 22.1491 277.765 22.4894C277.765 22.675 277.703 22.969 277.579 23.3711C277.456 23.7733 277.286 24.1755 277.069 24.5777C276.512 25.6915 276.234 26.6351 276.234 27.4085C276.234 27.8726 276.398 28.3831 276.726 28.94C277.047 29.4968 277.549 30.1929 278.229 31.0283C279.219 32.3276 279.971 33.4321 280.485 34.3417C280.992 35.2575 281.246 36.2568 281.246 37.3396C281.246 37.649 281.215 38.0821 281.153 38.639C282.669 38.0511 284.448 36.4888 286.49 33.9519C286.861 33.5188 287.278 33.3022 287.743 33.3022C288.145 33.3022 288.463 33.4878 288.699 33.8591C288.927 34.2303 289.042 34.7408 289.042 35.3905C289.042 36.5661 288.748 37.5252 288.16 38.2677C286.613 40.1859 285.138 41.4914 283.733 42.1844C282.322 42.8836 280.58 43.2642 278.508 43.326C277.27 44.3779 275.801 44.9039 274.099 44.9039Z" fill="white"/>
</g>
</g>
</g>
</g>
<g clip-path="url(#clip7_314_111)">
<g clip-path="url(#clip8_314_111)">
<path d="M47.9327 31.3618C44.6754 31.3618 41.823 33.49 40.2549 36.6721C39.2616 35.9067 38.0856 35.4613 36.8263 35.4613C35.3496 35.4613 33.9885 36.0708 32.9021 37.094C31.4966 34.881 29.3021 33.4536 26.8345 33.4536C25.8832 33.4536 24.9714 33.667 24.1308 34.055C23.6531 33.2718 22.7948 32.748 21.8103 32.748C20.3077 32.748 19.0889 33.9652 19.0889 35.4678C19.0889 36.4418 19.6045 37.2945 20.3748 37.7754C20.1121 38.2741 19.8874 38.8059 19.7048 39.3637C19.4922 39.5043 19.2901 39.6635 19.101 39.8438C18.1319 38.3153 16.6156 37.3309 14.9126 37.3309C11.9866 37.3309 9.61194 40.2325 9.61194 43.8115C9.61194 45.007 10.4032 45.9712 11.3796 45.9712H18.4447C18.5158 45.9712 18.5853 45.9648 18.654 45.9551C18.7154 45.9648 18.7785 45.9712 18.8432 45.9712H21.7173H24.775H31.9524C32.0559 45.9712 32.1553 45.9615 32.2547 45.9494C32.3444 45.9623 32.4374 45.9712 32.5303 45.9712H41.1238C41.2556 45.9712 41.3865 45.9551 41.5126 45.9268C41.6605 45.9534 41.8076 45.9712 41.9604 45.9712H53.9058C55.5562 45.9712 56.8939 44.3377 56.8939 42.3195C56.8939 36.2696 52.8793 31.3618 47.9327 31.3618Z" fill="#D13333"/>
<path d="M47.9327 30.3183C50.9682 30.3183 53.4289 27.8576 53.4289 24.8221C53.4289 21.7867 50.9682 19.3259 47.9327 19.3259C44.8972 19.3259 42.4365 21.7867 42.4365 24.8221C42.4365 27.8576 44.8972 30.3183 47.9327 30.3183Z" fill="#D13333"/>
<path d="M26.8345 32.5378C29.4236 32.5378 31.5224 30.4389 31.5224 27.8498C31.5224 25.2607 29.4236 23.1619 26.8345 23.1619C24.2454 23.1619 22.1465 25.2607 22.1465 27.8498C22.1465 30.4389 24.2454 32.5378 26.8345 32.5378Z" fill="#D13333"/>
<path d="M36.8263 34.7169C39.0136 34.7169 40.7868 32.9437 40.7868 30.7564C40.7868 28.5691 39.0136 26.7959 36.8263 26.7959C34.639 26.7959 32.8658 28.5691 32.8658 30.7564C32.8658 32.9437 34.639 34.7169 36.8263 34.7169Z" fill="#D13333"/>
<path d="M14.9126 36.6939C16.6981 36.6939 18.1456 35.2464 18.1456 33.4608C18.1456 31.6753 16.6981 30.2278 14.9126 30.2278C13.127 30.2278 11.6795 31.6753 11.6795 33.4608C11.6795 35.2464 13.127 36.6939 14.9126 36.6939Z" fill="#D13333"/>
<path d="M0.257874 0.0285645V36.4006H10.1624C9.59174 35.5163 9.24822 34.4745 9.24822 33.3477C9.24822 30.2238 11.7894 27.6818 14.9126 27.6818C17.0375 27.6818 18.89 28.8594 19.8592 30.5948C19.9893 30.5414 20.1226 30.4954 20.2576 30.4525C19.9109 29.6143 19.7169 28.6986 19.7169 27.7359C19.7169 23.8118 22.9096 20.6175 26.8345 20.6175C29.8776 20.6175 32.4738 22.5404 33.4898 25.2319C34.4605 24.6306 35.6018 24.2766 36.8263 24.2766C38.0047 24.2766 39.1056 24.6031 40.0529 25.164C40.044 25.0121 40.0303 24.8625 40.0303 24.7082C40.0303 20.3508 43.5753 16.8058 47.9327 16.8058C52.2901 16.8058 55.8351 20.3516 55.8351 24.7082C55.8351 26.9657 54.8781 29.0009 53.357 30.442C55.4504 31.7805 57.1429 33.8723 58.1839 36.4014H64.9192V0.0293723L0.257874 0.0285645ZM61.6862 33.1675H60.1998C59.5143 31.9599 58.6988 30.8655 57.7693 29.9053C58.6123 28.3138 59.069 26.5268 59.069 24.7074C59.069 18.567 54.0731 13.5719 47.9335 13.5719C43.0693 13.5719 38.9245 16.7063 37.4107 21.0621C37.2167 21.05 37.0219 21.0443 36.8271 21.0443C36.1708 21.0443 35.5185 21.1122 34.8808 21.2456C32.945 18.8571 29.9956 17.3853 26.8345 17.3853C22.1886 17.3853 18.2475 20.4623 16.9429 24.6855C16.285 24.5304 15.6044 24.4495 14.9126 24.4495C10.067 24.4495 6.11296 28.3446 6.01758 33.1683H3.49094V3.26244H61.6862V33.1675Z" fill="#D13333"/>
</g>
</g>
</g>
</g>
</g>
<defs>
<clipPath id="clip0_314_111">
<rect width="289.308" height="46" fill="white"/>
</clipPath>
<clipPath id="clip1_314_111">
<rect width="288.792" height="46.1724" fill="white" transform="translate(0.257874 -0.0861816)"/>
</clipPath>
<clipPath id="clip2_314_111">
<rect width="288.792" height="46.1724" fill="white" transform="translate(0.257874 -0.0861816)"/>
</clipPath>
<clipPath id="clip3_314_111">
<rect width="198.296" height="45.9427" fill="white" transform="translate(90.7543 0.0285645)"/>
</clipPath>
<clipPath id="clip4_314_111">
<rect width="198.296" height="45.9427" fill="white" transform="translate(90.7543 0.0285645)"/>
</clipPath>
<clipPath id="clip5_314_111">
<rect width="198.296" height="45.9427" fill="white" transform="translate(90.7543 0.0285645)"/>
</clipPath>
<clipPath id="clip6_314_111">
<rect width="198.296" height="45.9427" fill="white" transform="translate(90.7543 0.0285645)"/>
</clipPath>
<clipPath id="clip7_314_111">
<rect width="64.6613" height="45.9427" fill="white" transform="translate(0.257874 0.0285645)"/>
</clipPath>
<clipPath id="clip8_314_111">
<rect width="64.6613" height="45.9427" fill="white" transform="translate(0.257874 0.0285645)"/>
</clipPath>
</defs>
</svg>
