<svg width="189" height="30" viewBox="0 0 189 30" fill="none" xmlns="http://www.w3.org/2000/svg">
<g clip-path="url(#clip0_294_3869)">
<g clip-path="url(#clip1_294_3869)">
<g clip-path="url(#clip2_294_3869)">
<path d="M52.1142 1.82722C52.1142 0.787026 51.5093 -0.0562134 50.7631 -0.0562134C50.017 -0.0562134 49.4121 0.787026 49.4121 1.82722V28.1728C49.4121 29.213 50.017 30.0562 50.7631 30.0562C51.5093 30.0562 52.1142 29.213 52.1142 28.1728V1.82722Z" fill="#185E2D"/>
<g clip-path="url(#clip3_294_3869)">
<g clip-path="url(#clip4_294_3869)">
<g clip-path="url(#clip5_294_3869)">
<g clip-path="url(#clip6_294_3869)">
<path d="M84.8591 9.09829C84.8591 10.8133 84.2538 12.2903 83.0432 13.5291C81.8326 14.772 80.0671 15.6658 77.7468 16.2106C78.9978 16.5536 79.9461 17.1125 80.5917 17.8873C81.2374 18.6661 81.5602 19.56 81.5602 20.5688C81.5602 22.1628 81.0619 23.5449 80.0651 24.7152C79.0644 25.8854 77.6056 26.7873 75.6888 27.4209C73.772 28.0585 71.4617 28.3773 68.758 28.3773C67.7492 28.3773 66.9421 28.347 66.3368 28.2865C66.3166 28.8514 66.0745 29.2751 65.6104 29.5576C65.1464 29.8401 64.5512 29.9813 63.8248 29.9813C63.0984 29.9813 62.6 29.8199 62.3297 29.4971C62.0553 29.1742 61.9382 28.7001 61.9786 28.0746C62.1602 25.2498 62.5133 22.2879 63.0379 19.1887C63.5625 16.0936 64.2283 13.1034 65.0354 10.2181C65.1766 9.71368 65.4591 9.36058 65.8828 9.15882C66.3065 8.95705 66.8614 8.85616 67.5474 8.85616C68.7782 8.85616 69.3936 9.19917 69.3936 9.88518C69.3936 10.1677 69.3331 10.4905 69.212 10.8537C68.6874 12.4275 68.1628 14.5602 67.6382 17.2517C67.1136 19.9474 66.7403 22.5159 66.5184 24.9573C67.4869 25.038 68.2738 25.0783 68.8791 25.0783C71.7038 25.0783 73.778 24.6688 75.1016 23.8496C76.4212 23.0344 77.081 21.9913 77.081 20.7201C77.081 19.8324 76.7037 19.0858 75.9491 18.4805C75.1904 17.8752 73.9233 17.5423 72.1477 17.4818C71.7442 17.4616 71.4617 17.3607 71.3003 17.1791C71.1389 16.9975 71.0582 16.705 71.0582 16.3014C71.0582 15.7163 71.1792 15.2421 71.4214 14.8789C71.6635 14.5158 72.1074 14.3241 72.753 14.3039C74.1856 14.2636 75.483 14.0517 76.6452 13.6683C77.8033 13.285 78.7153 12.7442 79.3811 12.0461C80.047 11.352 80.3799 10.5409 80.3799 9.61279C80.3799 8.44254 79.8048 7.51844 78.6548 6.8405C77.5047 6.16659 75.7392 5.82964 73.3583 5.82964C71.1994 5.82964 69.1111 6.10808 67.0934 6.66496C65.0757 7.2178 63.3607 7.91794 61.9483 8.76537C61.3027 9.14873 60.7579 9.34041 60.314 9.34041C59.9508 9.34041 59.6744 9.21329 59.4847 8.95907C59.291 8.70887 59.1942 8.3921 59.1942 8.00874C59.1942 7.50432 59.3011 7.07051 59.515 6.70733C59.7248 6.34415 60.2333 5.93052 61.0404 5.46645C62.7352 4.49797 64.7227 3.74133 67.0026 3.19656C69.2826 2.65178 71.613 2.3794 73.9939 2.3794C77.6459 2.3794 80.3698 2.99479 82.1655 4.22558C83.9613 5.45637 84.8591 7.0806 84.8591 9.09829ZM96.5415 21.7189C96.8038 21.7189 97.0096 21.84 97.159 22.0821C97.3123 22.3242 97.389 22.6571 97.389 23.0808C97.389 23.8879 97.1973 24.5134 96.8139 24.9573C95.9463 26.0267 95.002 26.9043 93.9811 27.5904C92.9642 28.2764 91.8101 28.6194 90.5188 28.6194C88.7432 28.6194 87.4256 27.8123 86.5661 26.1982C85.7106 24.584 85.2829 22.4957 85.2829 19.9332C85.2829 17.4717 85.5996 14.6671 86.2332 11.5195C86.8708 8.37192 87.809 5.66822 89.0479 3.40842C90.2908 1.14861 91.7697 0.0187073 93.4847 0.0187073C94.4532 0.0187073 95.2139 0.466634 95.7667 1.36249C96.3236 2.26237 96.6021 3.54965 96.6021 5.22433C96.6021 7.62537 95.9362 10.4098 94.6046 13.5775C93.2729 16.7453 91.4671 19.8828 89.1871 22.99C89.3283 23.8173 89.5604 24.4065 89.8832 24.7575C90.206 25.1126 90.6297 25.2902 91.1543 25.2902C91.9816 25.2902 92.7079 25.0521 93.3334 24.5759C93.9589 24.1038 94.7559 23.2927 95.7244 22.1426C95.9665 21.8601 96.2389 21.7189 96.5415 21.7189ZM92.8189 3.01497C92.3548 3.01497 91.8302 3.85231 91.2451 5.52698C90.66 7.20166 90.1455 9.27988 89.7016 11.7616C89.2577 14.2434 89.0156 16.6242 88.9752 18.9042C90.4078 16.5435 91.5478 14.1768 92.3952 11.804C93.2426 9.43524 93.6663 7.27228 93.6663 5.31513C93.6663 3.78169 93.3839 3.01497 92.8189 3.01497ZM110.373 19.1766C110.635 19.1766 110.837 19.3078 110.978 19.5701C111.119 19.8324 111.19 20.1653 111.19 20.5688C111.19 21.5373 110.897 22.1123 110.312 22.2939C109.102 22.7177 107.77 22.9598 106.317 23.0203C105.934 24.7152 105.177 26.0731 104.047 27.094C102.917 28.1109 101.636 28.6194 100.204 28.6194C98.993 28.6194 97.958 28.3268 97.0984 27.7417C96.2429 27.1566 95.5932 26.3797 95.1493 25.4113C94.7054 24.4428 94.4835 23.3936 94.4835 22.2637C94.4835 20.7302 94.7761 19.3622 95.3612 18.1597C95.9463 16.9612 96.7534 16.023 97.7824 15.345C98.8114 14.6711 99.9514 14.3342 101.202 14.3342C102.736 14.3342 103.971 14.8628 104.907 15.9201C105.847 16.9814 106.398 18.2888 106.559 19.8425C107.508 19.7819 108.638 19.5802 109.949 19.2371C110.11 19.1968 110.252 19.1766 110.373 19.1766ZM100.446 25.4113C101.091 25.4113 101.65 25.149 102.122 24.6244C102.599 24.0998 102.917 23.3431 103.079 22.3545C102.453 21.9308 101.973 21.3759 101.638 20.6899C101.307 20.0039 101.142 19.2775 101.142 18.5108C101.142 18.188 101.172 17.8651 101.233 17.5423H101.081C100.274 17.5423 99.6024 17.9297 99.0657 18.7045C98.533 19.4833 98.2667 20.5789 98.2667 21.9913C98.2667 23.101 98.4826 23.9484 98.9143 24.5336C99.3502 25.1187 99.8606 25.4113 100.446 25.4113ZM124.016 19.1766C124.279 19.1766 124.48 19.3078 124.622 19.5701C124.763 19.8324 124.834 20.1653 124.834 20.5688C124.834 21.5373 124.541 22.1123 123.956 22.2939C122.745 22.7177 121.414 22.9598 119.961 23.0203C119.577 24.7152 118.821 26.0731 117.691 27.094C116.561 28.1109 115.28 28.6194 113.847 28.6194C112.637 28.6194 111.604 28.3268 110.748 27.7417C109.889 27.1566 109.237 26.3797 108.793 25.4113C108.349 24.4428 108.127 23.3936 108.127 22.2637C108.127 20.7302 108.42 19.3622 109.005 18.1597C109.59 16.9612 110.397 16.023 111.426 15.345C112.455 14.6711 113.595 14.3342 114.846 14.3342C116.379 14.3342 117.616 14.8628 118.556 15.9201C119.493 16.9814 120.042 18.2888 120.203 19.8425C121.151 19.7819 122.281 19.5802 123.593 19.2371C123.754 19.1968 123.895 19.1766 124.016 19.1766ZM114.089 25.4113C114.735 25.4113 115.296 25.149 115.772 24.6244C116.244 24.0998 116.561 23.3431 116.722 22.3545C116.097 21.9308 115.619 21.3759 115.288 20.6899C114.953 20.0039 114.785 19.2775 114.785 18.5108C114.785 18.188 114.816 17.8651 114.876 17.5423H114.725C113.918 17.5423 113.248 17.9297 112.715 18.7045C112.179 19.4833 111.91 20.5789 111.91 21.9913C111.91 23.101 112.128 23.9484 112.564 24.5336C112.996 25.1187 113.504 25.4113 114.089 25.4113ZM124.38 28.6194C123.613 28.6194 123.074 28.2158 122.763 27.4088C122.449 26.6017 122.291 25.3104 122.291 23.5348C122.291 20.9118 122.665 18.42 123.411 16.0593C123.593 15.4742 123.891 15.0444 124.307 14.77C124.719 14.4996 125.298 14.3644 126.044 14.3644C126.448 14.3644 126.73 14.4149 126.892 14.5158C127.053 14.6167 127.134 14.8083 127.134 15.0908C127.134 15.4136 126.982 16.14 126.68 17.2699C126.478 18.077 126.317 18.7771 126.195 19.3703C126.074 19.9676 125.974 20.7101 125.893 21.5978C126.438 20.024 127.089 18.6924 127.848 17.6028C128.603 16.5133 129.379 15.7001 130.178 15.1634C130.973 14.6308 131.724 14.3644 132.43 14.3644C133.136 14.3644 133.637 14.5259 133.931 14.8487C134.222 15.1715 134.367 15.6658 134.367 16.3317C134.367 16.9773 134.175 18.1476 133.792 19.8425C133.631 20.5688 133.52 21.1136 133.459 21.4768C134.468 18.995 135.588 17.1892 136.819 16.0593C138.049 14.9294 139.199 14.3644 140.269 14.3644C141.58 14.3644 142.236 15.0202 142.236 16.3317C142.236 17.1186 142.014 18.541 141.57 20.5991C141.187 22.3545 140.995 23.5146 140.995 24.0796C140.995 24.8867 141.288 25.2902 141.873 25.2902C142.276 25.2902 142.757 25.042 143.313 24.5457C143.866 24.0534 144.607 23.2523 145.535 22.1426C145.777 21.8601 146.049 21.7189 146.352 21.7189C146.614 21.7189 146.822 21.84 146.976 22.0821C147.125 22.3242 147.2 22.6571 147.2 23.0808C147.2 23.8879 147.008 24.5134 146.625 24.9573C145.757 26.0267 144.823 26.9043 143.822 27.5904C142.825 28.2764 141.691 28.6194 140.42 28.6194C139.391 28.6194 138.614 28.3208 138.09 27.7235C137.565 27.1303 137.303 26.2688 137.303 25.1389C137.303 24.5739 137.444 23.5651 137.727 22.1123C137.989 20.8412 138.12 19.9635 138.12 19.4793C138.12 19.1564 138.009 18.995 137.787 18.995C137.525 18.995 137.151 19.332 136.667 20.0059C136.183 20.6838 135.699 21.5777 135.215 22.6874C134.73 23.7971 134.337 24.9674 134.034 26.1982C133.812 27.1666 133.556 27.8123 133.265 28.1351C132.971 28.458 132.501 28.6194 131.855 28.6194C131.189 28.6194 130.691 28.3006 130.36 27.663C130.025 27.0294 129.858 26.2587 129.858 25.3507C129.858 24.584 129.958 23.4743 130.16 22.0216C130.322 20.7302 130.402 19.8828 130.402 19.4793C130.402 19.1564 130.291 18.995 130.069 18.995C129.767 18.995 129.383 19.3582 128.919 20.0846C128.455 20.8109 128.007 21.7391 127.576 22.869C127.14 23.9989 126.791 25.1086 126.528 26.1982C126.306 27.1465 126.05 27.7861 125.76 28.117C125.465 28.4519 125.005 28.6194 124.38 28.6194ZM158.246 21.7189C158.509 21.7189 158.714 21.84 158.864 22.0821C159.017 22.3242 159.094 22.6571 159.094 23.0808C159.094 23.8879 158.902 24.5134 158.519 24.9573C157.772 25.8652 156.717 26.7026 155.353 27.4693C153.993 28.236 152.536 28.6194 150.983 28.6194C148.864 28.6194 147.22 28.0443 146.049 26.8943C144.879 25.7442 144.294 24.1704 144.294 22.1729C144.294 20.7807 144.587 19.4853 145.172 18.2868C145.757 17.0843 146.568 16.1299 147.605 15.4237C148.646 14.7175 149.823 14.3644 151.134 14.3644C152.304 14.3644 153.243 14.7115 153.949 15.4056C154.655 16.1037 155.008 17.048 155.008 18.2384C155.008 19.6306 154.508 20.8251 153.507 21.8218C152.51 22.8226 150.821 23.6155 148.44 24.2007C148.945 25.1288 149.903 25.5929 151.316 25.5929C152.224 25.5929 153.257 25.2741 154.415 24.6365C155.577 24.0029 156.582 23.1716 157.429 22.1426C157.671 21.8601 157.944 21.7189 158.246 21.7189ZM150.62 17.3304C149.873 17.3304 149.241 17.7642 148.725 18.6318C148.212 19.4994 147.956 20.5486 147.956 21.7794V21.84C149.147 21.5575 150.085 21.1338 150.771 20.5688C151.457 20.0039 151.8 19.3481 151.8 18.6016C151.8 18.2182 151.693 17.9115 151.479 17.6815C151.269 17.4475 150.983 17.3304 150.62 17.3304ZM158.785 28.6194C158.022 28.6194 157.484 28.2158 157.169 27.4088C156.858 26.6017 156.703 25.3104 156.703 23.5348C156.703 20.9118 157.076 18.42 157.823 16.0593C158.004 15.4742 158.301 15.0444 158.712 14.77C159.128 14.4996 159.707 14.3644 160.45 14.3644C160.853 14.3644 161.138 14.4149 161.303 14.5158C161.465 14.6167 161.545 14.8083 161.545 15.0908C161.545 15.4136 161.394 16.14 161.091 17.2699C160.89 18.077 160.726 18.7832 160.601 19.3885C160.484 19.9938 160.383 20.7403 160.298 21.6281C160.968 19.8929 161.717 18.4805 162.544 17.391C163.367 16.3014 164.178 15.5246 164.977 15.0605C165.776 14.5965 166.509 14.3644 167.175 14.3644C168.486 14.3644 169.142 15.0202 169.142 16.3317C169.142 16.594 169.051 17.2296 168.869 18.2384C168.708 19.0455 168.627 19.5499 168.627 19.7517C168.627 20.4578 168.88 20.8109 169.384 20.8109C169.949 20.8109 170.675 20.3671 171.563 19.4793C171.825 19.217 172.098 19.0858 172.38 19.0858C172.643 19.0858 172.848 19.2008 172.998 19.4308C173.151 19.6649 173.228 19.9736 173.228 20.357C173.228 21.1035 173.026 21.6886 172.622 22.1123C172.057 22.6975 171.396 23.1958 170.637 23.6075C169.882 24.0231 169.081 24.2309 168.234 24.2309C167.165 24.2309 166.351 23.9585 165.795 23.4138C165.242 22.869 164.965 22.1325 164.965 21.2044C164.965 20.9017 164.996 20.5991 165.056 20.2964C165.096 19.8929 165.117 19.6205 165.117 19.4793C165.117 19.1564 165.006 18.995 164.784 18.995C164.481 18.995 164.082 19.332 163.585 20.0059C163.093 20.6838 162.603 21.5777 162.114 22.6874C161.634 23.7971 161.243 24.9674 160.94 26.1982C160.714 27.1465 160.456 27.7861 160.165 28.117C159.875 28.4519 159.415 28.6194 158.785 28.6194ZM178.76 29.2852C177.711 29.2852 176.91 29.0431 176.357 28.5588C175.8 28.0746 175.522 27.5298 175.522 26.9245C175.522 26.3999 175.713 25.9459 176.097 25.5626C176.48 25.1792 177.045 24.9875 177.792 24.9875C178.054 24.9875 178.363 25.0118 178.718 25.0602C179.069 25.1126 179.335 25.149 179.517 25.1691C179.497 24.6445 179.382 24.1502 179.172 23.6861C178.958 23.2221 178.69 22.7721 178.367 22.3363C178.044 21.9045 177.741 21.5272 177.459 21.2044C176.833 22.3948 176.214 23.3835 175.6 24.1704C174.983 24.9573 174.311 25.7038 173.585 26.41C173.222 26.7732 172.838 26.9548 172.435 26.9548C172.112 26.9548 171.85 26.8378 171.648 26.6037C171.446 26.3737 171.345 26.0872 171.345 25.7442C171.345 25.3406 171.486 24.9674 171.769 24.6244L172.162 24.1401C173.272 22.7681 174.109 21.6382 174.674 20.7504C175.017 20.1653 175.421 19.3824 175.885 18.4018C176.349 17.4253 176.803 16.4124 177.247 15.3632C177.63 14.4754 178.427 14.0315 179.638 14.0315C180.203 14.0315 180.596 14.082 180.818 14.1828C181.04 14.2837 181.151 14.4451 181.151 14.6671C181.151 14.7882 181.111 14.9798 181.03 15.2421C180.949 15.5044 180.838 15.7667 180.697 16.029C180.334 16.7554 180.152 17.3708 180.152 17.8752C180.152 18.1779 180.259 18.5108 180.473 18.874C180.683 19.2371 181.01 19.6911 181.454 20.2359C182.099 21.0833 182.59 21.8036 182.925 22.3968C183.256 22.9941 183.421 23.6458 183.421 24.352C183.421 24.5537 183.401 24.8362 183.36 25.1994C184.349 24.816 185.509 23.7971 186.841 22.1426C187.083 21.8601 187.355 21.7189 187.658 21.7189C187.92 21.7189 188.128 21.84 188.282 22.0821C188.431 22.3242 188.506 22.6571 188.506 23.0808C188.506 23.8476 188.314 24.473 187.931 24.9573C186.922 26.2082 185.959 27.0597 185.043 27.5117C184.123 27.9677 182.987 28.2158 181.635 28.2562C180.828 28.9422 179.87 29.2852 178.76 29.2852Z" fill="white"/>
</g>
</g>
</g>
</g>
<g clip-path="url(#clip7_294_3869)">
<g clip-path="url(#clip8_294_3869)">
<path d="M31.2605 20.4534C29.1361 20.4534 27.2759 21.8414 26.2532 23.9167C25.6054 23.4175 24.8384 23.127 24.0172 23.127C23.0541 23.127 22.1664 23.5245 21.4579 24.1918C20.5413 22.7486 19.1101 21.8176 17.5008 21.8176C16.8803 21.8176 16.2857 21.9568 15.7375 22.2098C15.426 21.699 14.8662 21.3575 14.2241 21.3575C13.2442 21.3575 12.4493 22.1513 12.4493 23.1313C12.4493 23.7664 12.7856 24.3226 13.2879 24.6362C13.1166 24.9614 12.9701 25.3083 12.851 25.672C12.7123 25.7637 12.5805 25.8676 12.4572 25.9851C11.8252 24.9883 10.8363 24.3463 9.7256 24.3463C7.81739 24.3463 6.26868 26.2387 6.26868 28.5728C6.26868 29.3524 6.78474 29.9813 7.42151 29.9813H12.0292C12.0755 29.9813 12.1209 29.9771 12.1657 29.9708C12.2057 29.9771 12.2469 29.9813 12.289 29.9813H14.1635H16.1576H20.8386C20.906 29.9813 20.9709 29.975 21.0357 29.9671C21.0942 29.9755 21.1548 29.9813 21.2155 29.9813H26.8199C26.9058 29.9813 26.9912 29.9708 27.0735 29.9523C27.1699 29.9697 27.2659 29.9813 27.3655 29.9813H35.156C36.2324 29.9813 37.1048 28.916 37.1048 27.5997C37.1048 23.6542 34.4865 20.4534 31.2605 20.4534Z" fill="#D13333"/>
<path d="M31.2605 19.7729C33.2401 19.7729 34.8449 18.1681 34.8449 16.1884C34.8449 14.2088 33.2401 12.6039 31.2605 12.6039C29.2808 12.6039 27.676 14.2088 27.676 16.1884C27.676 18.1681 29.2808 19.7729 31.2605 19.7729Z" fill="#D13333"/>
<path d="M17.5008 21.2204C19.1893 21.2204 20.5581 19.8516 20.5581 18.1631C20.5581 16.4745 19.1893 15.1057 17.5008 15.1057C15.8122 15.1057 14.4434 16.4745 14.4434 18.1631C14.4434 19.8516 15.8122 21.2204 17.5008 21.2204Z" fill="#D13333"/>
<path d="M24.0172 22.6416C25.4437 22.6416 26.6001 21.4851 26.6001 20.0586C26.6001 18.6321 25.4437 17.4757 24.0172 17.4757C22.5906 17.4757 21.4342 18.6321 21.4342 20.0586C21.4342 21.4851 22.5906 22.6416 24.0172 22.6416Z" fill="#D13333"/>
<path d="M9.7256 23.9309C10.8901 23.9309 11.8341 22.9869 11.8341 21.8224C11.8341 20.6579 10.8901 19.7139 9.7256 19.7139C8.5611 19.7139 7.61708 20.6579 7.61708 21.8224C7.61708 22.9869 8.5611 23.9309 9.7256 23.9309Z" fill="#D13333"/>
<path d="M0.168198 0.0187073V23.7396H6.62765C6.2555 23.1629 6.03147 22.4834 6.03147 21.7486C6.03147 19.7112 7.68877 18.0534 9.7256 18.0534C11.1114 18.0534 12.3196 18.8214 12.9516 19.9532C13.0365 19.9184 13.1235 19.8884 13.2115 19.8604C12.9854 19.3138 12.8589 18.7165 12.8589 18.0887C12.8589 15.5295 14.941 13.4463 17.5008 13.4463C19.4854 13.4463 21.1786 14.7003 21.8412 16.4557C22.4743 16.0635 23.2186 15.8326 24.0172 15.8326C24.7857 15.8326 25.5037 16.0456 26.1215 16.4114C26.1157 16.3123 26.1067 16.2148 26.1067 16.1141C26.1067 13.2723 28.4187 10.9604 31.2605 10.9604C34.1022 10.9604 36.4142 13.2729 36.4142 16.1141C36.4142 17.5864 35.7901 18.9137 34.798 19.8536C36.1633 20.7265 37.2671 22.0907 37.9461 23.7401H42.3386V0.0192341L0.168198 0.0187073ZM40.2301 21.6311H39.2607C38.8137 20.8435 38.2818 20.1298 37.6756 19.5035C38.2254 18.4656 38.5233 17.3001 38.5233 16.1136C38.5233 12.109 35.2651 8.8513 31.261 8.8513C28.0887 8.8513 25.3856 10.8955 24.3983 13.7362C24.2718 13.7283 24.1447 13.7246 24.0177 13.7246C23.5897 13.7246 23.1643 13.7689 22.7484 13.8559C21.4859 12.2982 19.5624 11.3383 17.5008 11.3383C14.4708 11.3383 11.9005 13.3451 11.0498 16.0993C10.6207 15.9981 10.1768 15.9454 9.7256 15.9454C6.56545 15.9454 3.98673 18.4857 3.92453 21.6316H2.27672V2.12776H40.2301V21.6311Z" fill="#D13333"/>
</g>
</g>
</g>
</g>
</g>
<defs>
<clipPath id="clip0_294_3869">
<rect width="188.679" height="30" fill="white"/>
</clipPath>
<clipPath id="clip1_294_3869">
<rect width="188.343" height="30.1124" fill="white" transform="translate(0.168198 -0.0562134)"/>
</clipPath>
<clipPath id="clip2_294_3869">
<rect width="188.343" height="30.1124" fill="white" transform="translate(0.168198 -0.0562134)"/>
</clipPath>
<clipPath id="clip3_294_3869">
<rect width="129.323" height="29.9626" fill="white" transform="translate(59.1876 0.0187073)"/>
</clipPath>
<clipPath id="clip4_294_3869">
<rect width="129.323" height="29.9626" fill="white" transform="translate(59.1876 0.0187073)"/>
</clipPath>
<clipPath id="clip5_294_3869">
<rect width="129.323" height="29.9626" fill="white" transform="translate(59.1876 0.0187073)"/>
</clipPath>
<clipPath id="clip6_294_3869">
<rect width="129.323" height="29.9626" fill="white" transform="translate(59.1876 0.0187073)"/>
</clipPath>
<clipPath id="clip7_294_3869">
<rect width="42.1704" height="29.9626" fill="white" transform="translate(0.168198 0.0187073)"/>
</clipPath>
<clipPath id="clip8_294_3869">
<rect width="42.1704" height="29.9626" fill="white" transform="translate(0.168198 0.0187073)"/>
</clipPath>
</defs>
</svg>
