<svg width="29" height="29" viewBox="0 0 29 29" fill="none" xmlns="http://www.w3.org/2000/svg">
<path d="M8.41 0H20.59C25.23 0 29 3.77 29 8.41V20.59C29 22.8205 28.114 24.9596 26.5368 26.5368C24.9596 28.114 22.8205 29 20.59 29H8.41C3.77 29 0 25.23 0 20.59V8.41C0 6.17953 0.886051 4.04041 2.46323 2.46323C4.04041 0.886051 6.17953 0 8.41 0ZM8.12 2.9C6.73557 2.9 5.40784 3.44996 4.4289 4.4289C3.44996 5.40784 2.9 6.73557 2.9 8.12V20.88C2.9 23.7655 5.2345 26.1 8.12 26.1H20.88C22.2644 26.1 23.5922 25.55 24.5711 24.5711C25.55 23.5922 26.1 22.2644 26.1 20.88V8.12C26.1 5.2345 23.7655 2.9 20.88 2.9H8.12ZM22.1125 5.075C22.5932 5.075 23.0542 5.26596 23.3941 5.60587C23.734 5.94578 23.925 6.4068 23.925 6.8875C23.925 7.36821 23.734 7.82922 23.3941 8.16913C23.0542 8.50904 22.5932 8.7 22.1125 8.7C21.6318 8.7 21.1708 8.50904 20.8309 8.16913C20.491 7.82922 20.3 7.36821 20.3 6.8875C20.3 6.4068 20.491 5.94578 20.8309 5.60587C21.1708 5.26596 21.6318 5.075 22.1125 5.075ZM14.5 7.25C16.4228 7.25 18.2669 8.01384 19.6265 9.37348C20.9862 10.7331 21.75 12.5772 21.75 14.5C21.75 16.4228 20.9862 18.2669 19.6265 19.6265C18.2669 20.9862 16.4228 21.75 14.5 21.75C12.5772 21.75 10.7331 20.9862 9.37348 19.6265C8.01384 18.2669 7.25 16.4228 7.25 14.5C7.25 12.5772 8.01384 10.7331 9.37348 9.37348C10.7331 8.01384 12.5772 7.25 14.5 7.25ZM14.5 10.15C13.3463 10.15 12.2399 10.6083 11.4241 11.4241C10.6083 12.2399 10.15 13.3463 10.15 14.5C10.15 15.6537 10.6083 16.7601 11.4241 17.5759C12.2399 18.3917 13.3463 18.85 14.5 18.85C15.6537 18.85 16.7601 18.3917 17.5759 17.5759C18.3917 16.7601 18.85 15.6537 18.85 14.5C18.85 13.3463 18.3917 12.2399 17.5759 11.4241C16.7601 10.6083 15.6537 10.15 14.5 10.15Z" fill="white"/>
</svg>
