<svg width="102" height="103" viewBox="0 0 102 103" fill="none" xmlns="http://www.w3.org/2000/svg">
<path d="M98.077 95.0731H78.1479C88.5406 88.458 96.2194 78.2739 99.7719 66.3944C103.324 54.5149 102.512 41.739 97.483 30.4167C92.4544 19.0944 83.5482 9.98742 72.4027 4.77093C61.2573 -0.445568 48.6222 -1.42069 36.8218 2.02495C25.0214 5.47058 14.8494 13.1052 8.17686 23.5244C1.50436 33.9437 -1.21983 46.4467 0.505441 58.7335C2.23071 71.0203 8.28939 82.2645 17.567 90.3977C26.8445 98.5309 38.717 103.006 51.0004 103H98.077C99.1174 103 100.115 102.582 100.851 101.839C101.587 101.096 102 100.088 102 99.0365C102 97.9854 101.587 96.9773 100.851 96.234C100.115 95.4907 99.1174 95.0731 98.077 95.0731ZM7.84681 51.4752C7.84681 42.8524 10.3777 34.4232 15.1195 27.2536C19.8613 20.0839 26.6009 14.4959 34.4862 11.1961C42.3715 7.89624 51.0482 7.03286 59.4192 8.71509C67.7902 10.3973 75.4794 14.5496 81.5145 20.6469C87.5497 26.7442 91.6596 34.5126 93.3247 42.9697C94.9898 51.4269 94.1352 60.193 90.869 68.1594C87.6028 76.1259 82.0717 82.9349 74.9752 87.7255C67.8786 92.5161 59.5353 95.0731 51.0004 95.0731C39.5593 95.06 28.5906 90.4624 20.5005 82.2891C12.4105 74.1158 7.85979 63.0341 7.84681 51.4752ZM51.0004 39.5849C53.3281 39.5849 55.6035 38.8876 57.5389 37.581C59.4744 36.2745 60.9829 34.4175 61.8736 32.2448C62.7644 30.0721 62.9975 27.6814 62.5434 25.3749C62.0892 23.0684 60.9683 20.9497 59.3224 19.2869C57.6765 17.624 55.5794 16.4915 53.2964 16.0327C51.0134 15.5739 48.647 15.8094 46.4965 16.7094C44.346 17.6093 42.5079 19.1333 41.2147 21.0887C39.9215 23.044 39.2312 25.3429 39.2312 27.6946C39.2312 30.8481 40.4712 33.8724 42.6783 36.1023C44.8855 38.3322 47.879 39.5849 51.0004 39.5849ZM51.0004 23.7311C51.7763 23.7311 52.5347 23.9636 53.1799 24.3991C53.825 24.8346 54.3279 25.4536 54.6248 26.1778C54.9217 26.9021 54.9994 27.699 54.848 28.4678C54.6967 29.2366 54.323 29.9429 53.7744 30.4972C53.2257 31.0515 52.5267 31.4289 51.7657 31.5819C51.0047 31.7348 50.2159 31.6563 49.4991 31.3563C48.7822 31.0563 48.1695 30.5483 47.7385 29.8966C47.3074 29.2448 47.0773 28.4785 47.0773 27.6946C47.0773 26.6434 47.4906 25.6353 48.2263 24.892C48.9621 24.1487 49.9599 23.7311 51.0004 23.7311ZM62.7695 75.2559C62.7695 72.9042 62.0793 70.6053 60.786 68.65C59.4928 66.6946 57.6547 65.1706 55.5042 64.2707C53.3537 63.3707 50.9873 63.1352 48.7043 63.594C46.4213 64.0528 44.3243 65.1853 42.6783 66.8482C41.0324 68.5111 39.9115 70.6297 39.4573 72.9362C39.0032 75.2427 39.2363 77.6335 40.1271 79.8061C41.0179 81.9788 42.5263 83.8358 44.4618 85.1423C46.3972 86.4489 48.6726 87.1462 51.0004 87.1462C54.1217 87.1462 57.1153 85.8935 59.3224 83.6636C61.5295 81.4338 62.7695 78.4094 62.7695 75.2559ZM47.0773 75.2559C47.0773 74.472 47.3074 73.7057 47.7385 73.0539C48.1695 72.4021 48.7822 71.8941 49.4991 71.5941C50.2159 71.2942 51.0047 71.2157 51.7657 71.3686C52.5267 71.5215 53.2257 71.899 53.7744 72.4533C54.323 73.0076 54.6967 73.7138 54.848 74.4827C54.9994 75.2515 54.9217 76.0484 54.6248 76.7726C54.3279 77.4969 53.825 78.1159 53.1799 78.5514C52.5347 78.9869 51.7763 79.2193 51.0004 79.2193C49.9599 79.2193 48.9621 78.8018 48.2263 78.0585C47.4906 77.3152 47.0773 76.3071 47.0773 75.2559ZM74.5387 63.3656C76.8664 63.3656 79.1418 62.6682 81.0772 61.3617C83.0127 60.0552 84.5211 58.1981 85.4119 56.0255C86.3027 53.8528 86.5358 51.462 86.0817 49.1555C85.6275 46.8491 84.5066 44.7304 82.8607 43.0675C81.2148 41.4046 79.1177 40.2722 76.8347 39.8134C74.5517 39.3546 72.1853 39.5901 70.0348 40.49C67.8843 41.39 66.0462 42.914 64.753 44.8693C63.4598 46.8247 62.7695 49.1236 62.7695 51.4752C62.7695 54.6287 64.0095 57.6531 66.2166 59.883C68.4238 62.1128 71.4173 63.3656 74.5387 63.3656ZM74.5387 47.5118C75.3146 47.5118 76.073 47.7442 76.7182 48.1798C77.3633 48.6153 77.8661 49.2343 78.1631 49.9585C78.46 50.6827 78.5377 51.4796 78.3863 52.2485C78.2349 53.0173 77.8613 53.7235 77.3127 54.2778C76.764 54.8321 76.065 55.2096 75.304 55.3625C74.543 55.5155 73.7542 55.437 73.0374 55.137C72.3205 54.837 71.7078 54.329 71.2768 53.6772C70.8457 53.0254 70.6156 52.2591 70.6156 51.4752C70.6156 50.4241 71.0289 49.416 71.7646 48.6727C72.5004 47.9294 73.4982 47.5118 74.5387 47.5118ZM27.4621 39.5849C25.1343 39.5849 22.8589 40.2823 20.9235 41.5888C18.988 42.8953 17.4796 44.7523 16.5888 46.925C15.698 49.0977 15.4649 51.4884 15.9191 53.7949C16.3732 56.1014 17.4941 58.2201 19.14 59.883C20.786 61.5459 22.883 62.6783 25.166 63.1371C27.449 63.5959 29.8154 63.3604 31.9659 62.4605C34.1164 61.5605 35.9545 60.0365 37.2477 58.0811C38.541 56.1258 39.2312 53.8269 39.2312 51.4752C39.2312 48.3217 37.9912 45.2974 35.7841 43.0675C33.577 40.8376 30.5834 39.5849 27.4621 39.5849ZM27.4621 55.4387C26.6862 55.4387 25.9277 55.2062 25.2825 54.7707C24.6374 54.3352 24.1346 53.7162 23.8376 52.992C23.5407 52.2678 23.463 51.4708 23.6144 50.702C23.7658 49.9332 24.1394 49.227 24.688 48.6727C25.2367 48.1184 25.9357 47.7409 26.6967 47.588C27.4577 47.435 28.2465 47.5135 28.9633 47.8135C29.6802 48.1135 30.2929 48.6215 30.724 49.2733C31.155 49.925 31.3851 50.6913 31.3851 51.4752C31.3851 52.5264 30.9718 53.5345 30.2361 54.2778C29.5004 55.0211 28.5025 55.4387 27.4621 55.4387Z" fill="white"/>
</svg>
