<svg width="136" height="103" viewBox="0 0 136 103" fill="none" xmlns="http://www.w3.org/2000/svg">
<path d="M122.877 19.1628H112.14V13.1744C112.14 9.68035 110.758 6.32938 108.297 3.8587C105.836 1.38801 102.498 0 99.0175 0H13.1228C9.64242 0 6.30458 1.38801 3.84358 3.8587C1.38258 6.32938 0 9.68035 0 13.1744V70.6628C0 74.1569 1.38258 77.5078 3.84358 79.9785C6.30458 82.4492 9.64242 83.8372 13.1228 83.8372H81.1228V89.8256C81.1228 93.3196 82.5054 96.6706 84.9664 99.1413C87.4274 101.612 90.7652 103 94.2456 103H122.877C126.358 103 129.695 101.612 132.156 99.1413C134.617 96.6706 136 93.3196 136 89.8256V32.3372C136 28.8431 134.617 25.4922 132.156 23.0215C129.695 20.5508 126.358 19.1628 122.877 19.1628ZM13.1228 76.6512C11.5408 76.6512 10.0236 76.0202 8.90498 74.8972C7.78634 73.7742 7.15789 72.251 7.15789 70.6628V13.1744C7.15789 11.5862 7.78634 10.063 8.90498 8.94C10.0236 7.81696 11.5408 7.18605 13.1228 7.18605H99.0175C100.6 7.18605 102.117 7.81696 103.235 8.94C104.354 10.063 104.982 11.5862 104.982 13.1744V19.1628H94.2456C90.7652 19.1628 87.4274 20.5508 84.9664 23.0215C82.5054 25.4922 81.1228 28.8431 81.1228 32.3372V76.6512H13.1228ZM128.842 89.8256C128.842 91.4138 128.214 92.937 127.095 94.06C125.976 95.183 124.459 95.8139 122.877 95.8139H94.2456C92.6636 95.8139 91.1464 95.183 90.0278 94.06C88.9091 92.937 88.2807 91.4138 88.2807 89.8256V32.3372C88.2807 30.749 88.9091 29.2258 90.0278 28.1028C91.1464 26.9798 92.6636 26.3488 94.2456 26.3488H122.877C124.459 26.3488 125.976 26.9798 127.095 28.1028C128.214 29.2258 128.842 30.749 128.842 32.3372V89.8256ZM69.193 99.407C69.193 100.36 68.8159 101.274 68.1447 101.948C67.4735 102.621 66.5632 103 65.614 103H41.7544C40.8052 103 39.8949 102.621 39.2237 101.948C38.5525 101.274 38.1754 100.36 38.1754 99.407C38.1754 98.454 38.5525 97.5401 39.2237 96.8663C39.8949 96.1925 40.8052 95.8139 41.7544 95.8139H65.614C66.5632 95.8139 67.4735 96.1925 68.1447 96.8663C68.8159 97.5401 69.193 98.454 69.193 99.407ZM116.912 41.9186C116.912 42.8715 116.535 43.7854 115.864 44.4593C115.193 45.1331 114.283 45.5116 113.333 45.5116H103.789C102.84 45.5116 101.93 45.1331 101.259 44.4593C100.588 43.7854 100.211 42.8715 100.211 41.9186C100.211 40.9657 100.588 40.0518 101.259 39.378C101.93 38.7041 102.84 38.3256 103.789 38.3256H113.333C114.283 38.3256 115.193 38.7041 115.864 39.378C116.535 40.0518 116.912 40.9657 116.912 41.9186Z" fill="white"/>
</svg>
