<svg width="106" height="101" viewBox="0 0 106 101" fill="none" xmlns="http://www.w3.org/2000/svg">
<path d="M53.9636 34.9431L44.3273 25.3697H57.8182C63.1182 25.3697 67.4545 29.6777 67.4545 34.9431V48.346L57.8182 38.7725V34.9431H53.9636ZM106 34.9431V25.3697H86.7273C81.4273 25.3697 77.0909 29.6777 77.0909 34.9431V44.5166C77.0909 49.782 81.4273 54.0901 86.7273 54.0901H96.3636V63.6635H82.8727L92.5091 73.237H96.3636C101.664 73.237 106 68.9289 106 63.6635V54.0901C106 48.8246 101.664 44.5166 96.3636 44.5166H86.7273V34.9431H106ZM101.664 94.7773L95.4 101L64.5636 70.3649C63.1182 71.801 60.7091 73.237 57.8182 73.237H38.5455V44.0379L28.9091 34.4645V73.237H19.2727V54.0901H9.63636V73.237H0V34.9431C0 29.6777 4.33636 25.3697 9.63636 25.3697H19.7545L0.481818 6.22275L6.74546 0L101.664 94.7773ZM19.2727 34.9431H9.63636V44.5166H19.2727V34.9431ZM57.8182 63.1848L48.1818 53.6114V63.6635H57.8182V63.1848Z" fill="white"/>
</svg>
