<svg width="116" height="103" viewBox="0 0 116 103" fill="none" xmlns="http://www.w3.org/2000/svg">
<path d="M12.8889 0C9.34444 0 6.44444 1.15875 3.80222 3.66938C1.28889 6.18 0 9.27 0 12.875V90.125C0 93.73 1.28889 96.82 3.80222 99.3306C6.44444 101.841 9.34444 103 12.8889 103H103.111C106.333 103 109.556 101.777 112.069 99.2019C114.711 96.5625 116 93.5369 116 90.125V12.875C116 9.46313 114.711 6.4375 112.069 3.79813C109.556 1.22313 106.333 0 103.111 0H12.8889ZM9.66667 9.65625H106.333V93.3438H9.66667V9.65625ZM25.7778 32.1875C23.8444 32.1875 22.3622 32.7669 21.1378 33.99C19.9133 35.2131 19.3333 36.6937 19.3333 38.625V64.375C19.3333 66.3063 19.9133 67.7869 21.1378 69.01C22.3622 70.2331 23.8444 70.8125 25.7778 70.8125H45.1111C46.8511 70.8125 48.3333 70.2331 49.6867 69.01C50.9756 67.7869 51.5556 66.3063 51.5556 64.375V57.9375H41.8889V61.1562H29V41.8438H41.8889V45.0625H51.5556V38.625C51.5556 36.6937 50.9756 35.2131 49.6867 33.99C48.3333 32.7669 46.8511 32.1875 45.1111 32.1875H25.7778ZM70.8889 32.1875C69.1489 32.1875 67.6667 32.7669 66.3133 33.99C65.0244 35.2131 64.4444 36.6937 64.4444 38.625V64.375C64.4444 66.3063 65.0244 67.7869 66.3133 69.01C67.6667 70.2331 69.1489 70.8125 70.8889 70.8125H90.2222C92.1556 70.8125 93.6378 70.2331 94.8622 69.01C96.0867 67.7869 96.6667 66.3063 96.6667 64.375V57.9375H87V61.1562H74.1111V41.8438H87V45.0625H96.6667V38.625C96.6667 36.6937 96.0867 35.2131 94.8622 33.99C93.6378 32.7669 92.1556 32.1875 90.2222 32.1875H70.8889Z" fill="white"/>
</svg>
