<svg width="144" height="103" viewBox="0 0 144 103" fill="none" xmlns="http://www.w3.org/2000/svg">
<path d="M0 0H20.5714V41.2H41.1429V0H61.7143V103H41.1429V61.8H20.5714V103H0V0ZM82.2857 0H113.143C121.327 0 129.175 3.25553 134.962 9.0504C140.749 14.8453 144 22.7048 144 30.9V72.1C144 80.2952 140.749 88.1547 134.962 93.9496C129.175 99.7445 121.327 103 113.143 103H82.2857V0ZM113.143 82.4C115.871 82.4 118.487 81.3148 120.416 79.3832C122.345 77.4516 123.429 74.8317 123.429 72.1V30.9C123.429 28.1683 122.345 25.5484 120.416 23.6168C118.487 21.6852 115.871 20.6 113.143 20.6H102.857V82.4H113.143Z" fill="white"/>
</svg>
